<svg width="217" height="60" viewBox="0 0 217 60" fill="none" xmlns="http://www.w3.org/2000/svg">
<g clip-path="url(#clip0)">
<path fill-rule="evenodd" clip-rule="evenodd" d="M29.6722 1.18213C45.9978 1.18213 59.3443 14.4098 59.3443 30.5902C59.3443 46.7705 45.9978 59.9982 29.6722 59.9982C13.3465 59.9982 0 46.7705 0 30.5902C0 14.4098 13.3465 1.18213 29.6722 1.18213ZM21.8073 13.7012C21.6881 14.4098 21.5689 15.0004 21.5689 15.709C21.5689 16.5357 21.6881 17.0081 21.8073 17.7168C21.9264 17.8349 22.0456 18.1892 22.1647 18.4254C22.7606 19.4883 23.7139 20.5513 24.6672 21.1418C24.9055 21.2599 25.8589 21.8504 25.8589 21.8504C26.5739 22.0866 26.693 22.2047 26.8122 22.9134C27.0505 23.1496 27.1697 23.7401 27.1697 24.0944L27.408 24.5668C27.408 24.803 27.5272 24.9211 27.5272 25.0392C27.7655 25.7479 28.3613 27.6375 28.123 28.11C27.8847 28.11 27.6463 27.7556 27.408 27.5194C27.1697 27.2832 27.0505 27.1651 26.693 26.9289C26.9314 27.4013 27.6463 28.5824 27.8847 29.5272C28.0038 29.7634 28.3613 31.0626 28.2422 31.4169C28.0038 31.2988 27.8847 31.0626 27.6463 30.8264C27.5272 30.7083 27.5272 30.5902 27.408 30.472C27.2889 30.3539 27.2889 30.3539 27.1697 30.1177C26.8122 29.8815 26.3355 29.1729 25.8589 28.9367C25.7397 29.0548 25.7397 29.291 25.6205 29.5272C25.5014 29.7634 25.3822 29.7634 25.3822 29.9996C25.978 31.0626 27.2889 31.7712 28.5997 35.3143C28.838 36.023 28.9572 36.1411 28.9572 37.0859C28.9572 37.7945 28.9572 38.5032 28.9572 39.2118C28.9572 39.9204 28.838 40.5109 28.838 41.2196C28.838 41.8101 28.9572 42.7549 28.4805 42.9911C28.0038 42.873 27.7655 41.9282 27.6463 41.3377C27.5272 40.5109 27.6463 40.0385 27.8847 39.2118C27.6463 39.3299 27.2889 39.9204 27.2889 40.0385C27.1697 40.3928 27.1697 40.8652 26.9314 41.2196C26.4547 40.9834 25.3822 36.8497 25.7397 36.2592C26.0972 36.6135 26.2164 38.0307 26.693 38.2669C26.9314 38.1488 26.9314 38.1488 27.0505 37.9126C27.2889 37.4402 27.408 36.9678 27.5272 36.3773C27.6463 35.6686 27.408 34.7238 27.1697 34.1333C26.693 33.0703 26.0972 32.5979 25.5014 31.8893C25.1439 31.535 25.263 31.535 25.0247 31.0626C24.7864 31.2988 23.8331 32.3617 23.7139 32.8341C23.3564 33.5428 23.2372 34.6057 23.3564 35.5505C23.5947 36.7316 24.3097 37.6764 25.0247 38.5032C25.263 38.7394 25.3822 39.0937 25.3822 39.5661C25.1439 39.5661 24.5481 39.0937 24.0714 38.7394C21.6881 37.0859 19.0664 36.2592 16.2065 35.6686C15.0148 35.4324 14.5382 35.3143 13.3465 35.1962C12.8699 35.1962 12.6315 35.1962 12.5124 34.96C13.1082 34.7238 15.6107 34.96 16.4448 34.96C17.3981 34.96 16.6831 34.3695 16.4448 34.1333C16.2065 34.1333 15.4915 33.4247 15.2532 33.3066C15.0148 33.1885 15.134 33.3066 15.0148 33.0703C14.7765 33.0703 13.9423 32.716 13.8232 32.716C13.2273 32.5979 12.989 32.5979 12.3932 32.5979C11.559 32.716 11.0824 32.8341 10.3674 33.0703C9.89072 33.3066 8.9374 33.6609 8.46074 33.779C8.22241 33.8971 7.74574 33.8971 7.26908 33.8971L7.50741 34.4876C7.62658 34.7238 7.74574 34.96 7.86491 35.1962C7.98408 35.4324 8.10324 35.5505 8.22241 35.9049C8.34157 35.9049 8.46074 36.1411 8.46074 36.2592C8.69907 36.3773 9.05656 36.8497 9.77155 37.3221C10.2482 37.6764 10.7249 37.9126 11.3207 38.0307C12.7507 38.5032 13.9423 38.2669 15.134 37.7945C16.564 37.204 16.9215 36.6135 17.6365 36.8497C18.5898 37.204 21.0923 38.1488 21.4498 38.8575C21.0923 39.0937 20.0198 39.2118 19.5431 39.3299C18.9473 39.5661 18.3515 39.9204 17.7556 40.0385C17.994 39.5661 18.709 39.3299 18.9473 38.8575C17.8748 38.6213 17.3981 38.6213 16.2065 38.7394C14.0615 39.0937 13.1082 40.629 12.5124 42.4006C12.3932 42.7549 12.1549 42.9911 12.0357 43.3454C12.274 43.5817 12.5124 43.5817 12.6315 43.8179L13.8232 44.1722C14.419 44.1722 14.8957 44.2903 15.4915 44.1722C16.3256 44.0541 16.8023 43.936 17.5173 43.5817C17.8748 43.4635 18.1131 43.3454 18.3515 43.1092C18.5898 42.873 18.8281 42.7549 19.0664 42.6368C19.0664 42.5187 19.0664 42.5187 19.1856 42.4006C19.1856 42.4006 19.1856 42.4006 19.3048 42.2825C19.4239 42.1644 19.3048 42.2825 19.4239 42.1644C19.5431 41.9282 19.6623 41.8101 19.7814 41.5739C20.2581 40.9834 20.6156 39.8023 20.7348 39.6842C21.3306 39.448 22.5222 39.3299 22.9989 39.6842C23.3564 39.9204 24.3097 40.629 24.4289 40.9834C24.1906 41.1015 24.0714 41.2196 23.8331 41.2196C23.5947 41.3377 23.4756 41.4558 23.2372 41.5739C22.8797 41.8101 22.5222 41.3377 21.8073 41.4558C20.8539 41.5739 20.3773 42.4006 20.3773 43.4635C20.4964 43.8179 20.4964 43.936 20.7348 44.1722C20.8539 44.2903 21.0923 44.5265 21.3306 44.6446C21.6881 44.7627 22.0456 44.8808 22.4031 44.7627C22.7606 44.6446 23.1181 44.5265 23.3564 44.2903C23.5947 43.936 23.5947 43.6998 23.8331 43.4635C23.8331 42.7549 23.7139 42.7549 23.7139 42.2825C24.0714 42.0463 25.1439 41.5739 25.5014 42.1644C25.6205 42.1644 25.6205 42.1644 25.6205 42.2825C25.7397 42.4006 25.8589 42.4006 25.978 42.5187C26.0972 42.6368 26.0972 42.7549 26.2164 42.873C26.3355 43.1092 26.4547 43.2273 26.5739 43.4635L26.9314 43.936C27.1697 44.2903 27.7655 45.4713 27.7655 45.8256C28.0038 46.0618 27.8847 46.7705 27.7655 47.1248L27.5272 47.4791C27.5272 47.7153 26.8122 49.8412 26.5739 49.9593L26.0972 51.2584C26.0972 51.3765 26.0972 51.3765 25.978 51.3765C25.978 51.6128 25.8589 51.9671 25.7397 52.2033C25.6205 52.5576 24.0714 53.6205 22.8797 53.7386C12.274 50.9041 4.40912 41.3377 4.40912 29.9996C4.40912 16.4176 15.4915 5.43389 29.1955 5.43389C42.8995 5.43389 53.9819 16.4176 53.9819 29.9996C53.9819 41.4558 45.9978 51.1403 35.2729 53.8567C35.0346 53.8567 34.9154 53.8567 34.7963 53.7386C34.4388 53.7386 34.2004 53.6205 33.9621 53.6205C33.8429 53.6205 33.7238 53.6205 33.6046 53.5024L33.2471 53.3843C32.7705 53.5024 31.4596 52.9119 30.983 52.7938C30.983 52.5576 31.1021 51.6128 31.1021 51.4947C31.1021 51.1403 31.2213 49.8412 31.3405 49.605V48.8964L31.4596 47.4791C31.4596 46.7705 31.5788 46.18 31.5788 45.4713C31.5788 44.0541 31.3405 43.4635 31.9363 42.873C32.0555 42.7549 32.2938 42.4006 32.413 42.4006C32.7705 42.1644 33.6046 42.7549 33.7238 42.9911C33.7238 43.1092 33.4854 43.3454 33.3663 43.4635L33.2471 43.5817C33.128 44.1722 33.0088 44.2903 33.128 44.9989C33.2471 45.2351 33.3663 45.5894 33.6046 45.9437C33.8429 46.18 33.9621 46.2981 34.4388 46.4162C35.9879 46.5343 36.9412 45.9437 36.8221 44.4084L36.5837 43.6998L36.3454 43.4635C36.3454 43.3454 36.2263 43.3454 36.2263 43.2273C36.1071 43.1092 35.9879 42.9911 35.8688 42.873C35.6304 42.873 35.5113 42.6368 35.1538 42.6368C34.7963 42.5187 34.5579 42.6368 34.3196 42.5187C34.0813 42.4006 33.9621 42.1644 33.7238 42.0463C33.4854 41.8101 33.3663 41.9282 33.128 41.692C33.3663 41.3377 34.2004 40.8652 34.7963 40.7471C35.6304 40.5109 36.3454 40.8652 37.0604 41.1015C37.0604 41.4558 37.1796 41.9282 37.0604 42.2825V42.4006C37.1796 42.873 36.9412 42.0463 37.0604 42.5187V42.7549C37.2987 44.1722 38.0137 44.7627 38.2521 45.117C38.3712 45.117 38.2521 45.117 38.4904 45.2351C38.6096 45.3532 38.4904 45.2351 38.6096 45.3532C39.2054 45.7075 39.9204 46.7705 42.542 46.4162C42.8995 46.4162 43.6145 46.2981 43.8528 46.0618C43.1378 44.7627 43.6145 45.5894 43.257 44.1722C43.0187 43.1092 42.6612 42.9911 42.542 42.4006C42.7803 42.2825 42.6612 41.4558 42.6612 41.1015H42.542H42.6612C43.6145 41.3377 44.687 41.4558 45.8786 41.3377C46.3553 41.2196 46.832 41.1015 47.0703 40.9834C47.4278 40.7471 47.7853 40.3928 48.1428 40.2747C48.1428 40.1566 48.2619 40.1566 48.3811 40.0385L48.5003 39.9204C48.6194 39.8023 48.5003 39.9204 48.6194 39.8023C48.7386 39.5661 49.2153 38.8575 49.4536 38.7394C49.4536 38.6213 49.3344 38.6213 49.5728 38.5032C49.4536 38.2669 49.5728 38.5032 49.4536 38.2669C49.4536 38.2669 49.4536 38.2669 49.3344 38.1488C49.0961 38.1488 48.9769 38.1488 48.7386 38.0307C48.6194 38.0307 48.5003 37.9126 48.5003 37.9126C48.5003 37.9126 48.3811 37.9126 48.3811 37.7945C48.2619 37.7945 48.3811 37.7945 48.2619 37.6764C47.6661 37.4402 46.832 36.7316 45.2828 36.3773C44.3295 36.1411 42.1845 36.2592 41.827 36.9678C41.9462 37.3221 42.542 37.204 43.0187 37.3221C44.0912 37.6764 45.0445 38.0307 45.9978 38.7394H45.7595C43.6145 38.0307 42.3037 37.6764 39.682 37.7945C38.4904 37.7945 36.2263 38.3851 35.2729 38.8575C35.0346 38.9756 34.3196 39.448 34.0813 39.448C34.0813 38.1488 35.1538 39.2118 35.9879 36.9678C36.2263 36.3773 36.3454 35.9049 36.2263 35.0781C36.1071 34.6057 35.9879 33.779 35.7496 33.4247C35.5113 33.5428 34.0813 34.7238 33.7238 35.0781C33.0088 35.9049 33.0088 37.5583 33.4854 37.9126C33.8429 37.6764 34.2004 36.6135 34.5579 36.3773C34.4388 36.9678 33.4854 39.3299 33.2471 39.6842C33.2471 40.0385 33.0088 40.2747 32.5321 40.3928C32.413 40.5109 32.413 40.5109 32.2938 40.629C32.1746 40.7471 32.0555 40.7471 31.9363 40.7471C31.8171 40.3928 31.8171 39.9204 31.8171 39.5661C31.8171 39.3299 31.8171 39.2118 31.8171 38.9756C31.5788 38.6213 31.8171 39.0937 31.698 38.7394V38.0307C31.698 37.6764 31.8171 37.5583 31.8171 37.3221C32.1746 36.1411 33.0088 34.4876 33.7238 33.5428C32.7705 34.1333 31.8171 36.1411 31.4596 36.2592C31.3405 36.023 31.1021 34.0152 30.983 33.5428C30.8638 32.5979 30.6255 31.7712 30.3872 30.9445C29.9105 29.291 29.553 27.6375 28.9572 26.1022C28.3613 24.4487 26.9314 20.9056 26.0972 19.3702C25.8589 19.0159 25.0247 17.7168 25.0247 17.3624C25.5014 17.5987 26.693 19.7245 27.0505 19.9607C27.5272 19.6064 27.408 19.134 27.6463 18.6616L27.7655 17.1262L27.6463 18.6616C28.0038 18.4254 27.8847 18.5435 28.2422 18.5435V17.3624H27.8847C27.8847 16.7719 27.8847 17.3624 27.7655 17.1262C27.5272 15.3547 26.9314 14.2917 25.8589 13.5831C25.3822 13.1107 24.7864 12.8745 24.1906 12.5202C22.8797 11.8115 23.1181 11.5753 22.7606 11.221C22.5222 11.5753 22.2839 11.8115 22.0456 12.1658C21.9264 12.4021 21.6881 13.1107 21.5689 13.3469H21.4498L21.8073 13.7012ZM38.8479 39.2118C38.9671 39.2118 38.9671 39.2118 39.0862 39.2118C38.9671 39.2118 38.9671 39.2118 38.8479 39.2118ZM39.0862 39.2118C39.2054 39.2118 39.3245 39.2118 39.3245 39.2118C39.2054 39.2118 39.0862 39.2118 39.0862 39.2118ZM40.6354 35.7868L41.2312 35.4324C41.4695 35.3143 41.827 35.1962 41.9462 35.4324C42.3037 35.6686 42.7803 36.9678 44.3295 36.1411C45.7595 35.4324 44.9253 33.0703 43.257 33.1885C42.542 33.3066 42.3037 33.6609 42.1845 33.8971C41.9462 34.2514 41.4695 34.2514 40.9929 34.4876C40.7545 34.6057 40.0395 34.96 39.8012 34.96C39.8012 34.6057 40.5162 33.779 40.8737 33.4247C41.827 32.2436 44.4487 30.5902 45.9978 30.3539C45.8786 30.5902 45.7595 30.5902 45.2828 30.8264C44.9253 31.0626 43.257 31.7712 43.257 32.1255C43.4953 32.8341 45.9978 33.0703 46.9511 32.9522C47.6661 32.8341 48.8578 32.3617 49.3344 31.8893C49.5728 31.6531 49.6919 31.535 49.9303 31.2988C49.9303 31.1807 50.1686 30.9445 50.2878 30.8264C50.4069 30.5902 50.5261 30.3539 50.6453 30.1177C50.7644 29.9996 50.7644 29.8815 50.8836 29.7634C51.0027 29.5272 51.0027 29.5272 51.1219 29.4091L51.2411 29.0548C50.6453 29.0548 50.5261 28.9367 49.9303 28.8186C48.3811 28.11 47.547 27.2832 45.402 27.8737C43.0187 28.4643 42.542 29.9996 41.9462 30.3539C41.9462 30.472 41.9462 30.7083 41.7079 30.7083C41.4695 31.4169 40.5162 32.1255 40.0395 32.5979L38.9671 34.1333C38.8479 34.3695 38.7287 34.4876 38.6096 34.6057C38.1329 33.8971 40.1587 31.535 39.0862 29.0548C38.7287 28.2281 38.3712 27.4013 37.7754 26.9289C37.2987 26.4565 36.5837 25.866 35.6304 25.6298C35.7496 27.047 34.7963 27.7556 34.7963 29.9996C34.7963 31.535 36.3454 33.1885 36.7029 33.1885C37.1796 32.8341 36.9412 31.1807 37.1796 30.7083C37.5371 31.4169 37.5371 33.1885 37.5371 34.0152C37.5371 35.5505 37.2987 36.2592 37.1796 37.4402C38.4904 37.3221 38.2521 37.204 38.9671 36.6135C39.3245 36.2592 39.8012 35.7868 40.5162 35.5505L40.6354 35.7868ZM15.3723 32.3617L17.0406 32.5979H18.4706C18.709 32.8341 19.1856 33.3066 19.0664 33.6609C18.3515 33.6609 18.3515 33.5428 17.5173 33.6609C17.8748 33.8971 18.8281 33.779 20.1389 35.1962C20.3773 35.4324 20.8539 36.1411 20.9731 36.3773C21.2114 36.4954 22.1647 36.9678 22.4031 36.9678C22.2839 36.4954 21.8073 35.6686 21.6881 35.1962C21.2114 34.0152 21.0923 32.0074 21.2114 30.8264L21.5689 29.291C21.6881 28.8186 21.8073 28.9367 21.9264 28.9367C21.8073 29.5272 21.3306 32.0074 22.2839 31.8893C22.6414 31.7712 24.3097 30.5902 24.5481 30.3539C25.0247 29.7634 25.5014 28.7005 25.6205 27.7556C25.7397 27.047 25.6205 24.5668 25.8589 24.3306V23.9763C25.0247 24.0944 22.6414 25.2755 22.0456 25.9841C18.8281 29.5272 20.3773 30.472 20.3773 33.4247C20.0198 33.4247 19.6623 32.716 19.4239 32.3617C18.8281 31.6531 18.2323 30.8264 17.5173 30.2358C17.279 29.9996 16.6831 29.5272 16.4448 29.1729C17.0406 29.291 18.2323 30.3539 18.709 30.472C18.709 29.8815 17.994 28.5824 17.7556 28.2281C16.8023 26.9289 15.0148 25.9841 13.3465 25.9841C12.6315 25.9841 11.0824 26.2203 10.4865 26.4565C11.0824 27.1651 11.2015 27.047 11.6782 28.11C11.9165 28.8186 12.0357 29.5272 12.3932 30.2358C13.2273 32.0074 14.6573 32.2436 15.6107 32.716L15.3723 32.3617ZM30.983 15.3547C30.983 15.5909 30.268 17.0081 30.1488 17.3624C29.4338 19.3702 29.3147 19.8426 28.9572 21.8504C28.838 22.4409 28.7188 22.559 28.9572 23.0315C29.0763 23.2677 29.1955 23.7401 29.4338 23.9763C29.6722 23.5039 29.553 21.9685 30.5063 21.1418C30.7446 20.9056 31.1021 20.6694 31.2213 20.5513C30.5063 20.6694 30.3872 21.0237 29.9105 21.1418C29.9105 20.7875 30.0297 20.4332 30.1488 20.197C30.268 19.8426 30.3872 19.8426 30.8638 19.6064C33.8429 18.1892 35.9879 15.709 34.7963 12.284C34.3196 10.7486 34.3196 10.7486 33.3663 9.56755C33.2471 9.33134 33.2471 9.33134 33.0088 9.33134C32.2938 11.3391 30.6255 10.9848 29.4338 13.7012C29.1955 14.2917 29.0763 14.646 29.0763 15.3547C29.0763 15.709 29.0763 16.89 29.1955 17.2443C29.6722 18.1892 30.268 15.8271 30.983 15.5909V15.3547ZM40.7545 30.472C40.7545 30.2358 40.8737 30.2358 41.112 29.9996C41.2312 29.7634 41.3504 29.6453 41.4695 29.5272C41.5887 29.291 41.7079 29.0548 41.827 28.7005C42.0654 27.9919 42.542 27.7556 43.3762 26.6927C44.2103 25.5117 44.3295 24.5668 44.2103 22.9134C44.2103 22.7953 43.972 21.8504 43.972 21.7323L43.7337 21.378C43.6145 21.0237 43.3762 20.5513 43.3762 20.3151C43.1378 20.197 43.1378 19.9607 42.8995 19.6064C42.7803 19.3702 42.542 19.134 42.4228 18.8978C42.3037 18.8978 42.0654 18.6616 42.0654 18.5435C41.7079 18.3073 41.5887 17.953 41.2312 17.7168C40.6354 19.2521 39.5629 21.0237 39.2054 22.0866C38.9671 23.0315 38.9671 23.9763 39.2054 24.9211C39.3245 25.2755 39.5629 25.6298 39.682 25.9841C40.6354 27.5194 40.7545 26.6927 41.3504 25.3936C41.4695 25.0392 41.827 24.0944 41.9462 23.8582C42.4228 24.5668 41.2312 28.11 40.7545 28.9367C40.2779 29.8815 40.2779 29.4091 40.2779 30.7083C40.5162 30.5902 40.397 30.5902 40.6354 30.3539L40.7545 30.472ZM20.8539 25.7479C22.1647 24.4487 22.5222 22.6772 21.9264 20.9056C21.4498 19.4883 20.4964 18.4254 19.7814 16.89L19.6623 16.6538C19.3048 17.0081 18.1131 18.4254 17.8748 19.0159C17.279 20.197 17.0406 20.7875 17.0406 22.3228C17.0406 23.7401 17.3981 24.5668 17.994 25.5117C18.3515 26.1022 18.5898 26.2203 18.9473 26.5746C19.1856 26.8108 19.1856 27.5194 19.4239 27.9919L19.5431 28.11L19.7814 27.5194C19.9006 27.2832 20.0198 27.1651 20.0198 27.047L20.1389 26.8108H20.8539C20.8539 26.4565 20.8539 26.1022 20.9731 25.7479H20.8539ZM30.983 28.2281C31.4596 27.9919 32.5321 25.7479 32.8896 25.3936C32.7705 25.9841 32.5321 26.6927 32.413 27.2832C32.1746 27.9919 31.1021 30.1177 33.0088 28.4643C34.2004 27.4013 34.5579 26.5746 34.5579 24.5668C34.5579 22.2047 33.8429 21.6142 33.2471 20.3151C33.0088 20.5513 33.0088 20.6694 32.6513 21.1418C32.0555 21.7323 30.983 23.0315 30.6255 23.622C30.268 24.4487 29.9105 25.0392 30.268 26.1022C30.5063 26.6927 30.8638 27.8737 31.1021 28.3462L30.983 28.2281ZM34.7963 20.7875C35.3921 20.4332 36.2263 19.3702 36.5837 19.2521C36.4646 19.7245 35.6304 20.9056 35.2729 21.378C34.9154 21.7323 35.0346 21.7323 35.2729 22.2047C35.9879 22.2047 36.9412 21.6142 37.2987 21.378C37.8946 21.0237 38.2521 20.5513 38.6096 19.7245C38.9671 18.8978 39.2054 18.3073 39.0862 17.2443C38.9671 16.1814 38.6096 15.709 38.3712 15.0004C38.0137 15.1185 38.2521 15.2366 37.4179 15.5909C37.0604 15.709 36.8221 15.9452 36.4646 16.0633C35.0346 16.89 34.3196 17.4806 33.8429 19.134C33.7238 19.6064 33.8429 19.7245 34.0813 20.0789C34.3196 20.4332 34.4388 20.6694 34.5579 21.0237L34.7963 20.7875ZM45.9978 33.779C45.9978 34.8419 46.3553 33.779 45.8786 35.6686C46.117 35.7868 46.5936 35.7868 46.9511 36.023C47.547 36.2592 48.2619 35.7868 49.0961 35.5505C49.5728 35.4324 49.9303 35.4324 50.1686 35.3143C49.8111 34.7238 48.7386 33.6609 48.2619 33.4247C47.3086 33.779 47.0703 33.779 45.9978 33.779ZM32.2938 34.4876C32.7705 34.2514 33.6046 33.1885 33.7238 32.4798C33.8429 31.8893 33.8429 30.5902 33.7238 29.9996C33.7238 29.6453 33.7238 29.5272 33.8429 29.291C33.128 29.5272 31.9363 30.2358 31.5788 30.7083C31.8171 31.2988 32.1746 33.6609 32.2938 34.4876ZM46.2361 26.6927C46.9511 25.6298 46.9511 24.0944 46.9511 22.559C46.7128 22.559 45.402 23.2677 45.1636 23.3858C45.1636 25.3936 44.9253 25.6298 44.2103 27.1651C44.9253 27.047 45.402 26.6927 46.2361 26.6927ZM13.9423 21.4961C13.9423 22.2047 13.9423 24.5668 14.5382 24.803C15.134 25.0392 14.7765 24.803 15.6107 25.2755C15.9682 25.5117 16.4448 25.7479 16.8023 25.866C16.564 25.3936 15.6107 24.2125 15.849 23.1496C15.7298 22.9134 15.7298 22.4409 15.7298 22.0866L13.9423 21.2599V21.4961ZM35.5113 23.3858V24.6849L37.5371 25.6298C38.1329 24.5668 37.8946 23.622 37.6562 22.4409C36.4646 22.559 36.1071 23.1496 35.3921 23.3858H35.5113Z" fill="url(#paint0_linear)"/>
<path d="M67.5659 23.855V18.5403C67.5659 15.7058 69.1151 14.1704 72.2134 14.1704H77.4566C80.5549 14.1704 81.9849 15.5877 81.9849 18.5403V40.5077C81.9849 43.4603 80.4358 44.8776 77.4566 44.8776H72.2134C69.1151 44.8776 67.5659 43.4603 67.5659 40.5077V35.3111H72.0942V39.9172C72.0942 40.5077 72.2134 40.862 72.3325 41.0982C72.5709 41.2163 72.9284 41.3344 73.5242 41.3344H76.0267C76.6225 41.3344 76.98 41.2163 77.2183 41.0982C77.4566 40.862 77.5758 40.5077 77.5758 39.9172V31.2956H72.0942V27.8705H77.5758V19.1308C77.5758 18.5403 77.4566 18.186 77.2183 17.9498C76.98 17.7135 76.6225 17.5954 76.0267 17.5954H73.5242C72.9284 17.5954 72.5709 17.7135 72.3325 17.9498C72.2134 18.0679 72.0942 18.5403 72.0942 19.1308V23.855H67.5659ZM89.8498 44.9957V14.4066H94.2589V44.9957H89.8498ZM105.699 14.4066L99.1447 29.7602L105.58 44.9957H100.694L94.3781 29.7602L100.694 14.4066H105.46H105.699ZM121.667 40.0353V19.367C121.667 18.7765 121.548 18.4222 121.309 18.186C121.071 17.9498 120.714 17.9498 120.118 17.9498H117.258C116.662 17.9498 116.305 18.0679 116.066 18.186C115.828 18.4222 115.828 18.7765 115.828 19.367V40.0353C115.828 40.6258 115.947 40.9801 116.066 41.2163C116.305 41.4526 116.662 41.4526 117.258 41.4526H120.118C120.714 41.4526 121.071 41.3344 121.309 41.2163C121.548 40.9801 121.667 40.6258 121.667 40.0353ZM116.066 14.4066H121.548C124.646 14.4066 126.076 15.8239 126.076 18.7765V40.7439C126.076 43.5784 124.527 45.1138 121.548 45.1138H116.066C112.968 45.1138 111.419 43.6965 111.419 40.7439V18.7765C111.419 15.942 112.968 14.4066 116.066 14.4066ZM133.941 14.4066V44.9957H138.35V17.8316H145.023V44.9957H149.552V14.4066H133.822H133.941ZM161.826 34.3663H167.188L164.328 18.186L161.707 34.3663H161.826ZM169.095 44.9957L167.903 37.9094H161.349L160.157 44.9957H155.748L161.23 14.4066H167.665L173.504 44.9957H168.976H169.095ZM189.949 28.2248V19.367C189.949 18.7765 189.83 18.4222 189.591 18.186C189.353 17.9498 188.995 17.9498 188.4 17.9498H183.99V29.6421H188.4C188.995 29.6421 189.353 29.524 189.591 29.2878C189.83 29.0516 189.949 28.6973 189.949 28.1067V28.2248ZM179.7 14.4066H189.83C192.928 14.4066 194.358 15.8239 194.358 18.7765V28.9335C194.358 31.768 192.809 33.3033 189.83 33.3033H184.11V45.1138H179.7V14.5247V14.4066ZM201.269 44.9957V14.4066H205.679V44.9957H201.269ZM217.118 14.4066L210.564 29.7602L216.999 44.9957H212.113L205.798 29.7602L212.113 14.4066H216.88H217.118Z" fill="#50201F"/>
<path d="M67.5684 50.1968V57.8736H69.2367V54.6848H69.5942C70.5475 54.6848 70.905 55.3934 71.1433 56.2201C71.3817 56.8107 71.5008 57.4012 71.7392 57.8736H73.6458C73.2883 57.165 73.05 56.3382 72.6925 55.5115C72.335 54.5667 71.9775 53.858 70.905 53.6218L73.5266 50.1968H71.3817L69.2367 53.3856H69.1175V50.1968H67.4492H67.5684ZM78.7699 50.0787C76.5058 50.0787 74.9566 51.7322 74.9566 54.0942C74.9566 56.3382 76.2674 57.9917 78.5316 57.9917C80.7957 57.9917 82.3449 56.4563 82.3449 53.9761C82.3449 51.8503 81.0341 50.0787 78.6508 50.0787H78.7699ZM78.7699 51.4959C79.9616 51.4959 80.6766 52.677 80.6766 54.0942C80.6766 55.6296 79.9616 56.6925 78.7699 56.6925C77.5783 56.6925 76.8633 55.6296 76.8633 54.0942C76.8633 52.5589 77.5783 51.4959 78.7699 51.4959ZM86.1582 57.8736H87.8265V51.7322H89.9715V50.3149H84.0132V51.7322H86.1582V57.8736ZM93.9039 57.8736H95.5722V51.7322H97.7172V50.3149H91.7589V51.7322H93.9039V57.8736ZM104.39 53.2675H101.53V51.7322H104.51V50.3149H99.743V57.9917H104.629V56.5744H101.411V54.8029H104.271V53.3856L104.39 53.2675ZM108.204 50.1968V52.2046C108.204 53.1494 108.085 53.9761 107.846 54.6848C107.608 55.2753 107.489 55.8658 107.131 56.3382H106.535L106.655 59.5271H107.965L108.085 57.6374H112.613L112.732 59.5271H114.043L114.162 56.3382H113.447V50.0787H108.442L108.204 50.1968ZM109.872 51.6141H111.54V56.4563H109.038C109.276 56.102 109.395 55.6296 109.515 55.1572C109.753 54.4486 109.872 53.5037 109.872 52.677V51.6141ZM115.711 50.1968L118.333 53.6218C117.26 53.858 116.784 54.5667 116.426 55.5115C116.188 56.2201 115.949 57.0469 115.592 57.8736H117.379C117.618 57.4012 117.737 56.6925 117.975 56.2201C118.214 55.3934 118.571 54.6848 119.524 54.6848H119.763V57.8736H121.431V54.6848H121.669C122.623 54.6848 122.98 55.3934 123.219 56.2201C123.338 56.8107 123.576 57.4012 123.814 57.8736H125.602C125.244 57.165 125.125 56.3382 124.768 55.5115C124.41 54.5667 123.934 53.7399 122.861 53.6218L125.483 50.1968H123.457L121.55 53.3856H121.431V50.1968H119.763V53.3856H119.644L117.737 50.1968H115.711H115.83H115.711ZM127.509 50.1968V57.8736H129.177V54.6848H132.037V57.8736H133.705V50.1968H132.037V53.1494H129.177V50.1968H127.509ZM136.565 50.1968V57.7555C136.923 57.7555 137.638 57.8736 138.472 57.8736C139.663 57.8736 140.855 57.6374 141.689 56.9288C142.047 56.5744 142.285 55.9839 142.285 55.2753C142.285 53.6218 140.855 52.7951 139.187 52.7951C138.948 52.7951 138.591 52.7951 138.353 52.9132V50.3149H136.684L136.565 50.1968ZM138.233 54.2124C138.472 54.2124 138.591 54.2124 138.829 54.2124C139.544 54.2124 140.259 54.5667 140.259 55.3934C140.259 56.2201 139.544 56.6925 138.71 56.6925C138.472 56.6925 138.233 56.6925 138.114 56.6925V54.2124H138.233ZM142.881 50.1968V57.8736H144.549V50.1968H142.881ZM147.409 50.1968V57.8736H149.435L150.984 55.1572C151.461 54.3305 151.937 53.3856 152.295 52.4408C152.176 53.3856 152.176 54.4486 152.176 55.6296V57.8736H153.725V50.1968H151.937L150.269 53.2675C149.792 54.0942 149.316 55.0391 148.839 55.9839C148.839 54.921 148.958 53.7399 148.958 52.5589V50.3149H147.409V50.1968ZM148.958 48.4252C149.077 49.3701 149.673 49.8425 150.627 49.8425C151.699 49.8425 152.295 49.3701 152.295 48.4252H151.103C151.103 48.8977 150.865 49.1339 150.627 49.1339C150.269 49.1339 150.15 48.8977 150.15 48.4252H148.958ZM159.326 50.1968V57.8736H160.994V51.6141H163.735V57.8736H165.403V50.1968H159.206H159.326ZM171.6 50.0787C169.336 50.0787 167.786 51.7322 167.786 54.0942C167.786 56.3382 169.097 57.9917 171.361 57.9917C173.625 57.9917 175.175 56.4563 175.175 53.9761C175.175 51.8503 173.864 50.0787 171.481 50.0787H171.6ZM171.6 51.4959C172.791 51.4959 173.506 52.677 173.506 54.0942C173.506 55.6296 172.791 56.6925 171.6 56.6925C170.408 56.6925 169.693 55.6296 169.693 54.0942C169.693 52.5589 170.408 51.4959 171.6 51.4959ZM183.04 56.3382C182.682 56.4563 182.086 56.5744 181.61 56.5744C180.06 56.5744 179.107 55.6296 179.107 54.0942C179.107 52.4408 180.18 51.6141 181.61 51.6141C182.205 51.6141 182.801 51.7322 183.04 51.8503L183.397 50.5511C183.04 50.3149 182.444 50.1968 181.49 50.1968C179.107 50.1968 177.32 51.6141 177.32 54.2124C177.32 56.3382 178.63 57.9917 181.371 57.9917C182.325 57.9917 183.04 57.7555 183.278 57.6374L183.04 56.3382ZM190.189 53.2675H187.329V51.7322H190.309V50.3149H185.542V57.9917H190.428V56.5744H187.21V54.8029H190.07V53.3856L190.189 53.2675ZM186.734 49.8425C187.21 49.8425 187.449 49.4882 187.449 49.1339C187.449 48.6614 187.091 48.3071 186.734 48.3071C186.257 48.3071 185.9 48.6614 185.9 49.1339C185.9 49.4882 186.257 49.8425 186.615 49.8425H186.734ZM189.117 49.8425C189.594 49.8425 189.832 49.4882 189.832 49.1339C189.832 48.6614 189.474 48.3071 189.117 48.3071C188.64 48.3071 188.402 48.6614 188.402 49.1339C188.402 49.4882 188.759 49.8425 189.117 49.8425ZM193.645 50.3149V53.6218C193.645 54.8029 193.526 55.7477 193.049 56.2201C192.811 56.4563 192.573 56.5744 192.215 56.5744L192.454 57.9917C193.049 57.9917 193.645 57.8736 194.003 57.6374C195.194 56.9288 195.433 55.3934 195.433 53.5037V51.7322H197.22V57.9917H198.889V50.3149H193.645ZM204.847 50.1968C202.583 50.1968 201.034 51.8503 201.034 54.2124C201.034 56.4563 202.344 58.1098 204.608 58.1098C206.873 58.1098 208.422 56.5744 208.422 54.0942C208.422 51.9684 207.111 50.1968 204.728 50.1968H204.847ZM204.847 51.6141C206.038 51.6141 206.753 52.7951 206.753 54.2124C206.753 55.7477 206.038 56.8107 204.847 56.8107C203.655 56.8107 202.94 55.7477 202.94 54.2124C202.94 52.677 203.655 51.6141 204.847 51.6141ZM210.805 50.433V58.1098H212.473V54.921H212.831C213.784 54.921 214.142 55.6296 214.38 56.4563C214.618 57.0469 214.738 57.6374 214.976 58.1098H216.882C216.525 57.4012 216.287 56.5744 215.929 55.7477C215.572 54.8029 215.214 54.0942 214.142 53.858L216.763 50.433H214.618L212.473 53.6218H212.354V50.433H210.686H210.805Z" fill="#50201F"/>
<path d="M107.608 3.42578H67.2109V4.84304H107.608V3.42578Z" fill="#50201F"/>
<path d="M217.002 3.42578H176.604V4.84304H217.002V3.42578Z" fill="#50201F"/>
<path d="M120.951 1.53656V8.15041H122.5V5.31591H123.215C123.334 6.96937 124.406 8.15041 126.075 8.15041C127.862 8.15041 129.054 6.85126 129.054 4.72538C129.054 2.83571 127.981 1.41846 126.194 1.41846C124.645 1.41846 123.572 2.4814 123.334 4.13486H122.5V1.53656H120.951ZM126.194 7.08747C125.241 7.08747 124.764 6.14264 124.764 4.84349C124.764 3.66244 125.241 2.5995 126.194 2.5995C127.147 2.5995 127.624 3.66244 127.624 4.84349C127.624 6.14264 127.147 7.08747 126.194 7.08747Z" fill="#009846"/>
<path d="M130.247 1.53418L132.511 4.48679C131.677 4.6049 131.2 5.31352 130.962 6.14026C130.723 6.73078 130.604 7.55751 130.247 8.14803H131.796C132.034 7.67561 132.153 7.2032 132.272 6.73078C132.511 6.02215 132.749 5.43163 133.583 5.43163H133.822V8.14803H135.252V5.43163H135.49C136.324 5.43163 136.682 6.02215 136.801 6.73078C136.92 7.2032 137.039 7.79372 137.277 8.14803H138.826C138.588 7.55751 138.35 6.73078 138.112 6.14026C137.873 5.31352 137.397 4.6049 136.443 4.48679L138.707 1.53418H136.92L135.252 4.25058H135.132V1.53418H133.702V4.25058H133.583L131.915 1.53418H130.127H130.247Z" fill="#009846"/>
<path d="M140.497 1.53418V8.14803H142.046V5.31352H144.549V8.14803H146.098V1.53418H144.549V4.01437H142.046V1.53418H140.497Z" fill="#009846"/>
<path d="M148.359 1.53418V8.14803C148.716 8.14803 149.193 8.26614 150.027 8.26614C150.981 8.26614 152.172 8.02993 152.768 7.43941C153.126 7.08509 153.245 6.61267 153.245 6.02215C153.245 4.48679 151.934 3.89627 150.623 3.89627C150.385 3.89627 150.027 3.89627 149.908 4.01437V1.65228H148.359V1.53418ZM149.908 4.95921C150.027 4.95921 150.266 4.95921 150.385 4.95921C150.981 4.95921 151.696 5.31352 151.696 6.02215C151.696 6.73078 151.1 7.08509 150.385 7.08509C150.146 7.08509 150.027 7.08509 149.908 7.08509V4.95921ZM153.96 1.53418V8.14803H155.509V1.53418H153.96Z" fill="#009846"/>
<path d="M157.774 1.53536V8.14921H159.442L160.753 5.78712C161.111 5.07849 161.587 4.25176 161.945 3.42503C161.826 4.25176 161.826 5.1966 161.826 6.25954V8.26732H163.256V1.65346H161.706L160.276 4.25176C159.919 4.96039 159.442 5.78712 159.085 6.61385C159.085 5.78712 159.204 4.72418 159.204 3.66124V1.65346H157.774V1.53536ZM159.085 0C159.204 0.826732 159.681 1.18105 160.515 1.18105C161.349 1.18105 161.945 0.826732 162.064 0H160.991C160.991 0.354314 160.872 0.590523 160.515 0.590523C160.157 0.590523 160.038 0.354314 160.038 0H158.966H159.085Z" fill="#009846"/>
</g>
<defs>
<linearGradient id="paint0_linear" x1="18.4706" y1="57.6361" x2="34.7889" y2="20.679" gradientUnits="userSpaceOnUse">
<stop stop-color="#409236"/>
<stop offset="1" stop-color="#004F32"/>
</linearGradient>
<clipPath id="clip0">
<rect width="217" height="60" fill="white"/>
</clipPath>
</defs>
</svg>
