<svg width="218" height="60" viewBox="0 0 218 60" fill="none" xmlns="http://www.w3.org/2000/svg">
<path fill-rule="evenodd" clip-rule="evenodd" d="M29.6453 0.536621C46.0015 0.536621 59.2872 13.8226 59.2872 30.179C59.2872 46.5355 46.0015 59.8214 29.6453 59.8214C13.2891 59.8214 0.00341797 46.5355 0.00341797 30.179C0.00341797 13.8226 13.2891 0.536621 29.6453 0.536621ZM21.792 13.173C21.6739 13.8816 21.5558 14.4721 21.5558 15.2397C21.5558 16.1254 21.7329 16.5388 21.851 17.2474C21.9101 17.3064 22.0872 17.7788 22.1463 17.956C22.6777 19.0779 23.6815 20.0227 24.6853 20.7312C24.8625 20.8493 25.8072 21.4398 25.8663 21.4989C26.5158 21.7351 26.6339 21.7941 26.811 22.5617C26.9882 22.7979 27.2244 23.3884 27.1653 23.6837L27.3425 24.1561C27.4015 24.3332 27.4015 24.4513 27.4606 24.6284C27.6377 25.337 28.2872 27.2856 28.051 27.699C27.7558 27.6399 27.5787 27.3447 27.4015 27.1675C27.1653 26.9904 26.9882 26.7542 26.752 26.6361C26.9291 27.1085 27.6968 28.3485 27.8739 29.2342C28.051 29.4114 28.2872 30.7695 28.2872 31.1828C28.051 31.0647 27.8739 30.8285 27.6968 30.5923C27.5787 30.4742 27.5787 30.4152 27.4015 30.2971C27.2834 30.12 27.2834 30.179 27.2244 30.0019C26.811 29.7657 26.3387 29.1161 25.8663 28.8209C25.7482 28.998 25.7482 29.1752 25.6891 29.3523C25.6301 29.5295 25.512 29.6476 25.4529 29.8247C25.9844 30.9466 27.2834 31.5962 28.6415 35.1981C28.9368 35.9067 29.0548 36.0248 29.0548 36.9696C29.0548 37.6782 29.0548 38.3868 28.9958 39.0953C28.9958 39.7449 28.9368 40.3944 28.8777 41.103C28.8187 41.6935 28.9368 42.6383 28.5234 42.9335C28.051 42.7564 27.8148 41.8116 27.6968 41.2801C27.5787 40.3944 27.6968 39.922 27.8739 39.2134C27.6968 39.3315 27.3425 39.922 27.2244 40.0992C27.0472 40.4535 27.1063 40.9258 26.8701 41.2211C26.3977 40.9849 25.3348 36.7334 25.6891 36.202C26.0434 36.5563 26.1025 37.9734 26.6929 38.2096C26.8701 38.1506 26.8701 38.0915 26.9882 37.8553C27.2244 37.3829 27.3425 36.9105 27.4015 36.3791C27.5196 35.6115 27.3425 34.7257 27.0472 34.1353C26.5748 33.0133 25.9844 32.6 25.3348 31.8914C24.9806 31.4781 25.1577 31.5962 24.9215 31.0647C24.6263 31.2419 23.7996 32.4229 23.5634 32.8362C23.2091 33.6038 23.091 34.6076 23.2091 35.5524C23.3863 36.7334 24.1539 37.6782 24.9215 38.5049C25.1577 38.741 25.3348 39.0953 25.3348 39.6268C25.0396 39.6858 24.4491 39.1544 23.9768 38.8001C21.6148 37.2058 19.0168 36.261 16.1234 35.6705C14.9425 35.4343 14.5291 35.3162 13.2891 35.1981C12.8168 35.1391 12.5806 35.2572 12.4625 34.9619C13.0529 34.7848 15.5329 34.9619 16.3596 35.021C17.3634 35.021 16.5368 34.4305 16.4187 34.1353C16.2415 34.0762 15.4148 33.4267 15.2968 33.3086C15.1196 33.1905 15.1787 33.2495 15.0606 33.1314C14.8834 33.1314 13.9977 32.7771 13.8796 32.7181C13.2891 32.6 13.0529 32.6 12.4625 32.6C11.5768 32.7181 11.2225 32.7771 10.4548 33.1314C9.98247 33.3086 9.0377 33.781 8.50627 33.84C8.27008 34.0172 7.7977 33.9581 7.32532 33.8991L7.56151 34.4896C7.67961 34.6667 7.73866 35.021 7.85675 35.1981C7.97485 35.4934 8.15199 35.6115 8.27008 35.8477C8.38818 35.9067 8.44723 36.0248 8.50627 36.1429C8.74247 36.261 9.09675 36.7924 9.74627 37.2648C10.1596 37.5601 10.691 37.8553 11.2815 38.0325C12.7577 38.5049 13.8796 38.3277 15.1787 37.7963C16.5958 37.2058 16.9501 36.6153 17.5996 36.9105C18.6034 37.3239 20.9653 38.2096 21.3787 38.8591C20.9653 39.0953 19.9615 39.1544 19.4301 39.3315C18.8396 39.5087 18.1901 39.863 17.6587 39.9811C17.8948 39.4496 18.6625 39.2134 18.8987 38.8001C17.8358 38.623 17.3044 38.5049 16.1825 38.741C14.1158 39.1544 13.112 40.6306 12.4625 42.4611C12.3444 42.8744 12.1082 43.1106 11.931 43.4059C12.1082 43.6421 12.4034 43.7011 12.5806 43.8783L13.7025 44.1735C14.352 44.2326 14.7653 44.2916 15.4148 44.2326C16.2415 44.1145 16.7729 43.9964 17.4815 43.7011C17.8358 43.524 18.072 43.4059 18.3672 43.2287C18.6625 43.0516 18.8987 42.8154 19.1348 42.6973C19.1939 42.5792 19.1939 42.5792 19.312 42.4611C19.371 42.4021 19.371 42.4021 19.4301 42.343C19.5482 42.284 19.4891 42.284 19.5482 42.284C19.6663 42.0478 19.7844 41.9887 19.9615 41.6935C20.3748 41.0439 20.7882 39.863 20.8472 39.8039C21.3787 39.5087 22.6187 39.5087 23.1501 39.8039C23.5634 40.0401 24.5082 40.7487 24.5672 41.103C24.3901 41.2211 24.1539 41.2801 23.9768 41.3392C23.7406 41.4573 23.6225 41.5754 23.4453 41.6935C23.032 41.9297 22.7368 41.4573 22.0282 41.5754C21.0244 41.7525 20.552 42.5202 20.611 43.6421C20.7291 44.0554 20.7291 44.0554 20.9653 44.3507C21.1425 44.5278 21.3787 44.705 21.4968 44.8231C21.851 44.8821 22.2053 45.0002 22.6187 45.0002C23.032 44.8821 23.3272 44.764 23.5634 44.5278C23.8587 44.1735 23.7996 43.9964 23.9768 43.6421C24.0358 42.9925 23.8587 42.8744 23.8587 42.4021C24.272 42.1068 25.3348 41.6344 25.6891 42.284C25.8072 42.343 25.7482 42.284 25.8072 42.4021C25.9253 42.4611 25.9844 42.5202 26.1025 42.6383C26.1615 42.6973 26.2796 42.8154 26.3387 42.9335C26.5158 43.1697 26.6339 43.2878 26.752 43.583L27.1063 44.1145C27.3425 44.5278 27.9329 45.6497 27.9329 46.0631C28.2282 46.3583 28.051 46.9488 27.9329 47.3031L27.7558 47.5983C27.7558 47.8345 26.9882 49.9603 26.8701 50.1374L26.3977 51.4365C26.3387 51.5546 26.3387 51.4955 26.2796 51.5546C26.2796 51.7908 26.1615 52.1451 26.0434 52.3813C25.9253 52.6765 24.331 53.8575 23.1501 53.9756C12.5215 51.1412 4.72723 41.5163 4.72723 30.0019C4.72723 16.3026 15.8282 5.20146 29.5272 5.20146C43.2263 5.20146 54.3272 16.3026 54.3272 30.0019C54.3272 41.5754 46.4148 51.3184 35.6682 54.0346C35.491 54.0346 35.3139 53.9756 35.1958 53.9165C34.9006 53.8575 34.6053 53.8575 34.3101 53.7984C34.192 53.7984 34.0739 53.7394 33.9558 53.7394L33.6015 53.6213C33.1291 53.6803 31.8301 53.1489 31.3577 52.9718C31.2987 52.7356 31.4168 51.8498 31.5348 51.6136C31.5939 51.2593 31.6529 49.9012 31.771 49.7241V48.9565L31.8891 47.5393C31.9482 46.8307 32.0072 46.2402 32.0072 45.5316C32.0072 44.1145 31.712 43.524 32.3615 42.8744C32.4796 42.7564 32.7748 42.4611 32.8929 42.4021C33.3063 42.1068 34.0148 42.6973 34.1329 42.9925C34.1329 43.1106 33.8967 43.3468 33.7787 43.4649L33.6606 43.583C33.4834 44.1145 33.4244 44.3507 33.4834 44.9411C33.6606 45.1773 33.7196 45.5907 33.9558 45.8859C34.192 46.1812 34.3691 46.2402 34.7825 46.4174C36.2587 46.5355 37.2625 45.8859 37.2034 44.4097L37.0263 43.7011L36.8491 43.4649C36.7901 43.4059 36.731 43.3468 36.731 43.2878C36.6129 43.1106 36.5539 43.1106 36.4358 42.9335C36.1996 42.8744 36.0225 42.7564 35.7272 42.6973C35.3139 42.6383 35.1958 42.7564 34.9006 42.5202C34.7234 42.4021 34.5463 42.1659 34.3691 42.0478C34.0739 41.8706 34.0148 41.9297 33.8377 41.6344C34.0148 41.2801 34.9596 40.7487 35.491 40.6306C36.3767 40.4535 37.0263 40.7487 37.7348 40.9258C37.7939 41.2801 37.8529 41.8116 37.7348 42.1068L37.7939 42.2249C37.971 42.6973 37.6758 41.8706 37.8529 42.343C37.8529 42.4021 37.912 42.5202 37.912 42.5792C38.1482 43.9964 38.8567 44.5869 39.0339 45.0002C39.0929 45.0592 39.0929 45.0002 39.211 45.1183C39.3291 45.2364 39.2701 45.1773 39.2701 45.2364C39.9196 45.5907 40.5691 46.6536 43.1672 46.2993C43.4625 46.2402 44.2301 46.1221 44.4663 45.945C43.6987 44.5869 44.171 45.4135 43.8758 44.0554C43.6396 42.9925 43.3444 42.8154 43.1082 42.284C43.3444 42.1659 43.2263 41.2801 43.2263 41.0439H43.1672H43.2263C44.171 41.2801 45.2929 41.4573 46.4148 41.2801C46.8282 41.2211 47.3006 41.0439 47.6548 40.8668C48.0682 40.6306 48.3634 40.3354 48.6587 40.2173C48.7177 40.0992 48.7767 40.0992 48.8948 39.922C48.9539 39.863 48.9539 39.8039 49.0129 39.8039C49.131 39.6858 49.072 39.7449 49.131 39.6858C49.2491 39.4496 49.7806 38.741 49.9577 38.623C49.9577 38.5049 49.8987 38.5639 50.0167 38.4458C49.8987 38.2687 50.0167 38.3868 49.8987 38.2687C49.8396 38.2096 49.8396 38.2687 49.7215 38.1506C49.4853 38.1506 49.3082 38.0915 49.072 38.0325C49.0129 37.9734 48.8948 37.9734 48.7767 37.9144C48.7177 37.9144 48.7177 37.8553 48.6587 37.8553C48.5996 37.7963 48.5996 37.7963 48.5996 37.7963C47.9501 37.6191 47.1234 36.7924 45.5882 36.4972C44.6434 36.3201 42.4587 36.4382 42.1044 37.0286C42.2225 37.3829 42.8129 37.2648 43.2853 37.3829C44.4072 37.7963 45.352 38.1506 46.2967 38.8001H46.0015C43.8758 38.0915 42.5177 37.6782 39.9787 37.8553C38.8567 37.9144 36.5539 38.4458 35.5501 38.9772C35.2548 39.1544 34.6053 39.5677 34.3101 39.5677C34.3101 38.2687 35.3729 39.3315 36.1406 37.0877C36.3767 36.4382 36.4948 35.9658 36.3767 35.1981C36.3177 34.7257 36.1406 33.84 35.9044 33.6038C35.7272 33.6629 34.251 34.8438 33.8377 35.3162C33.0701 36.202 33.1291 37.8553 33.6015 38.1506C34.0148 37.8553 34.3101 36.9105 34.7234 36.6153C34.6053 37.2648 33.7196 39.6268 33.3653 39.922C33.3063 40.3354 33.0701 40.5125 32.6567 40.5716C32.5977 40.6897 32.5387 40.7487 32.4206 40.8077C32.3025 40.8668 32.2434 40.9258 32.0663 40.9258C31.9482 40.5716 31.9482 40.0992 31.9482 39.6858C31.9482 39.4496 31.8891 39.2725 31.9482 39.0363C31.712 38.682 31.9482 39.1544 31.8891 38.8001L31.8301 38.0915C31.8301 37.7963 31.8891 37.5601 32.0072 37.3239C32.3615 36.1429 33.1882 34.4305 33.9558 33.5448C33.011 34.0762 32.0072 36.1429 31.6529 36.261C31.5348 36.0248 31.2396 34.0172 31.1806 33.5448C31.0034 32.659 30.8853 31.7143 30.6491 30.8876C30.1768 29.2342 29.7634 27.5809 29.232 25.9866C28.6415 24.3922 27.2834 20.6722 26.3977 19.255C26.1615 18.9007 25.3348 17.6017 25.2758 17.2474C25.7482 17.4245 26.9291 19.6684 27.3425 19.9046C27.8148 19.6093 27.6968 19.0779 27.9329 18.5464L28.051 16.9521L27.9329 18.5464C28.2282 18.3693 28.2282 18.4283 28.5825 18.4283V17.2474H28.1691C28.1691 16.7159 28.1691 17.1883 28.051 17.0112C27.8148 15.2397 27.1653 14.2359 26.2206 13.4092C25.6891 12.9959 25.1577 12.6416 24.5672 12.2873C23.2682 11.5787 23.5044 11.2835 23.091 11.0473C22.9139 11.3425 22.5596 11.6968 22.3825 12.0511C22.2644 12.3463 22.0282 12.9959 21.9101 13.173H21.792ZM38.7977 38.9772C38.8567 38.9772 38.9158 38.9182 38.9748 38.9182C38.9158 38.9182 38.8567 38.9772 38.7977 38.9772ZM38.9748 38.9182C39.0929 38.9182 39.152 38.8591 39.2701 38.8591C39.152 38.8591 39.0929 38.9182 38.9748 38.9182ZM42.931 41.103C42.931 41.103 42.931 41.103 42.9901 41.162C42.9901 41.162 42.9901 41.162 42.931 41.103ZM40.5101 35.4934L41.1006 35.1391C41.3367 35.021 41.632 34.8438 41.7501 35.08C42.0453 35.3162 42.6358 36.6153 44.171 35.7296C45.5882 34.9619 44.8206 32.6 43.0491 32.7771C42.3406 32.8952 42.1634 33.2495 41.9863 33.4857C41.7501 33.84 41.2187 33.8991 40.7463 34.0172C40.451 34.1353 39.8606 34.5486 39.5653 34.4896C39.5063 34.1353 40.3329 33.3086 40.6872 32.8952C41.632 31.7143 44.2301 30.0019 45.8834 29.8247C45.7063 30.0609 45.5882 30.0609 45.1748 30.2971C44.7615 30.5333 43.1672 31.3009 43.1672 31.6552C43.4034 32.4229 45.8834 32.659 46.8872 32.4819C47.5958 32.3638 48.7177 31.8914 49.2491 31.36C49.4853 31.1238 49.6034 30.9466 49.8396 30.8285C49.8396 30.7104 50.0758 30.4742 50.1939 30.4152C50.312 30.179 50.4301 29.9428 50.5482 29.7066C50.6072 29.5885 50.6663 29.4704 50.7253 29.3523C50.8434 29.1752 50.8434 29.1161 50.9615 28.998L51.0206 28.5847C50.4301 28.5847 50.2529 28.4666 49.7215 28.3485C48.1272 27.6399 47.3006 26.7542 45.1748 27.3447C42.8129 27.9942 42.2815 29.4704 41.8091 29.8838C41.8091 30.0609 41.7501 30.179 41.632 30.2971C41.3958 31.0647 40.451 31.7143 39.9787 32.2457L38.9158 33.7219C38.7977 33.8991 38.7387 34.1353 38.5025 34.1943C38.0301 33.4267 40.0967 31.1238 39.0339 28.5847C38.6796 27.758 38.2663 26.9904 37.7348 26.4589C37.2034 25.9866 36.4948 25.3961 35.6682 25.1599C35.7863 26.6361 34.7825 27.2266 34.8415 29.5885C34.9006 31.1238 36.3177 32.7771 36.7901 32.8362C37.2034 32.4229 36.9672 30.8285 37.2625 30.4152C37.5577 31.1238 37.6167 32.8952 37.6167 33.781C37.5577 35.3162 37.3215 36.0248 37.2625 37.2058C38.6206 37.1467 38.3844 36.9696 39.0339 36.3201C39.4472 35.9658 39.9196 35.4934 40.5691 35.2572L40.5101 35.4934ZM15.1787 32.0686L16.832 32.3048L18.3082 32.2457C18.4853 32.4819 19.0168 32.8952 18.8987 33.3086C18.1901 33.3086 18.131 33.1314 17.3044 33.3086C17.6587 33.6038 18.5444 33.4267 19.9025 34.7848C20.1387 35.021 20.552 35.7886 20.7882 35.9067C20.9653 36.0248 22.0282 36.4972 22.2053 36.5563C22.0872 36.0839 21.6739 35.2572 21.4968 34.7257C21.0244 33.5448 20.8472 31.5371 21.0244 30.2971L21.3787 28.8209C21.5558 28.3485 21.6148 28.4666 21.6739 28.4075C21.6148 29.0571 21.0834 31.5371 22.0872 31.36C22.4415 31.3009 24.0948 30.0609 24.331 29.8838C24.8625 29.2933 25.2168 28.2304 25.3939 27.2856C25.512 26.6361 25.4529 24.097 25.6301 23.8018V23.3884C24.8034 23.5065 22.4415 24.6875 21.792 25.4551C18.5444 28.998 20.1387 30.0019 20.0796 33.0133C19.7253 32.9543 19.312 32.2457 19.0758 31.9505C18.4853 31.1828 17.8358 30.4152 17.1272 29.7657C16.832 29.5295 16.2415 28.998 16.0644 28.7028C16.7139 28.8209 17.8358 29.9428 18.3082 29.9428C18.3672 29.3523 17.5996 28.0533 17.3044 27.6399C16.3596 26.3408 14.5291 25.3961 12.8758 25.3961C12.1082 25.3961 10.5729 25.5732 9.98247 25.8685C10.632 26.518 10.7501 26.3999 11.1634 27.5218C11.4587 28.2895 11.5768 28.998 11.931 29.7066C12.8168 31.5371 14.1748 31.7143 15.1787 32.1867V32.0686ZM30.7672 14.8854C30.7672 15.0626 30.1177 16.5388 29.9406 16.8931C29.1729 18.9007 29.1729 19.3731 28.7006 21.4398C28.5825 21.9713 28.4644 22.0894 28.7006 22.5617C28.8187 22.857 28.9958 23.3294 29.1729 23.5656C29.3501 23.0932 29.291 21.5579 30.2948 20.6722C30.531 20.495 30.8853 20.1998 31.0625 20.0227C30.4129 20.1407 30.1768 20.436 29.7044 20.5541C29.7044 20.1998 29.8815 19.8455 29.9406 19.5503C30.0587 19.1369 30.1768 19.196 30.5901 19.0188C33.5425 17.6017 35.7272 15.1216 34.4872 11.6378C33.9558 10.1615 34.0148 10.1025 33.011 8.92152C32.8339 8.74437 32.8929 8.74437 32.6567 8.62628C31.9482 10.693 30.2948 10.3387 29.1139 12.9959C28.8777 13.5864 28.7596 13.9406 28.7596 14.6492C28.7596 15.0035 28.8187 16.2435 28.9368 16.4797C29.4091 17.4245 30.0587 15.0626 30.7672 14.7673V14.8854ZM40.5101 30.179C40.5691 30.0019 40.6872 29.8838 40.8053 29.7066C40.9234 29.5295 41.0415 29.3523 41.2187 29.2933C41.3367 29.0571 41.4548 28.8209 41.5729 28.4666C41.8091 27.758 42.3406 27.5809 43.1082 26.4589C43.9348 25.278 44.0529 24.3332 43.9348 22.5617C43.8758 22.4436 43.6987 21.5579 43.6987 21.3808L43.5215 21.0265C43.3444 20.6131 43.1082 20.1998 43.1082 19.9636C42.931 19.8455 42.8129 19.6093 42.6358 19.3141C42.4587 19.0779 42.2225 18.8417 42.1634 18.6645C41.9863 18.6055 41.8682 18.4283 41.8091 18.3102C41.4548 18.1331 41.2777 17.7198 40.9825 17.5426C40.392 19.0779 39.2701 20.9084 38.9748 21.9713C38.7387 22.916 38.6796 23.8608 38.9748 24.8056C39.0929 25.2189 39.2701 25.5732 39.5063 25.8685C40.451 27.3447 40.5691 26.577 41.1006 25.278C41.2777 24.9237 41.5729 23.9789 41.691 23.7427C42.1634 24.4513 40.9234 27.9942 40.451 28.8209C39.9196 29.7657 39.9787 29.2933 40.0377 30.5923C40.3329 30.4742 40.1558 30.4152 40.451 30.2381L40.5101 30.179ZM20.611 25.4551C21.851 24.097 22.2644 22.3846 21.6739 20.5541C21.2015 19.1369 20.2568 18.074 19.6072 16.5388L19.4301 16.3026C19.4301 16.3026 19.4301 16.3026 19.371 16.2435C18.9577 16.5978 17.8358 18.015 17.5406 18.6645C17.0091 19.8455 16.7139 20.436 16.7139 21.9713C16.7139 23.3294 17.0682 24.2741 17.6587 25.2189C18.0129 25.7504 18.2491 25.9275 18.6034 26.3408C18.8396 26.577 18.8396 27.3447 19.0758 27.758L19.1939 27.8761L19.371 27.3447C19.4301 27.1675 19.5482 26.9313 19.6663 26.8723L19.7844 26.577H20.4929C20.4929 26.1637 20.4339 25.8094 20.611 25.4551ZM30.7672 27.9942C31.2987 27.8171 32.3025 25.4551 32.7158 25.1599C32.5977 25.7504 32.3615 26.4589 32.1844 26.9904C31.9482 27.758 30.8263 29.8838 32.7158 28.1123C33.9558 26.9904 34.3101 26.1637 34.3101 24.1561C34.3101 21.7941 33.5425 21.2036 32.952 19.8455C32.7748 20.0227 32.7748 20.2588 32.3615 20.7312C31.8301 21.3217 30.6491 22.6208 30.2948 23.2703C29.8815 24.097 29.5863 24.6875 29.9406 25.6913C30.1177 26.2818 30.472 27.4628 30.7082 27.9352L30.7672 27.9942ZM34.6053 20.495C35.1958 20.1998 35.9634 19.0779 36.4358 18.9007C36.3177 19.3141 35.5501 20.6131 35.1958 21.0265C34.9006 21.4398 34.9596 21.3808 35.1367 21.7941C35.8453 21.7941 36.731 21.2036 37.2034 20.9084C37.7939 20.495 38.1482 20.0227 38.5025 19.255C38.9158 18.4874 39.0929 17.7788 38.9748 16.7159C38.9158 15.6531 38.5025 15.1807 38.2663 14.413C37.8529 14.5311 38.0891 14.5902 37.3806 14.9445C37.0263 15.1216 36.731 15.2397 36.4358 15.4169C34.9596 16.1845 34.3101 16.8931 33.8377 18.4874C33.7196 18.9598 33.8967 19.1369 34.0739 19.4912C34.251 19.7865 34.4282 20.1407 34.6053 20.436V20.495ZM45.7653 33.6629C45.8244 34.7848 46.1196 33.7219 45.6472 35.5524C45.9425 35.6705 46.4148 35.7296 46.7101 35.8477C47.2415 36.0839 48.0682 35.6705 48.8948 35.4343C49.3082 35.3162 49.7806 35.3162 49.9577 35.1391C49.6034 34.6076 48.5406 33.4857 48.0682 33.1905C47.1234 33.4857 46.8282 33.6038 45.7653 33.6038V33.6629ZM32.0663 34.3124C32.5387 34.0762 33.3653 32.9543 33.5425 32.3048C33.7196 31.7143 33.6606 30.4742 33.6015 29.7657C33.6015 29.3523 33.6606 29.3523 33.6606 29.0571C32.952 29.2933 31.771 30.0019 31.3577 30.4742C31.6529 31.0647 32.0072 33.4857 32.0663 34.3124ZM46.0606 26.3999C46.7691 25.337 46.7691 23.7427 46.7101 22.2665C46.4739 22.2665 45.1748 22.9751 44.9387 23.0932C44.8796 25.1599 44.6434 25.337 43.9348 26.8723C44.6434 26.8132 45.1158 26.4589 46.0015 26.3999H46.0606ZM13.8206 21.2036C13.8206 21.9122 13.8206 24.3332 14.411 24.5103C14.9425 24.7465 14.6472 24.5103 15.4739 24.9827C15.7691 25.1599 16.3006 25.4551 16.6548 25.5732C16.4777 25.1008 15.4739 23.9199 15.7101 22.857C15.592 22.6208 15.651 22.0894 15.592 21.7941L13.7615 20.9674V21.2036H13.8206ZM35.432 23.0341L35.491 24.3922L37.4987 25.278C38.0891 24.2151 37.912 23.2703 37.6758 22.0894C36.4948 22.2074 36.0815 22.7979 35.491 23.0341H35.432Z" fill="url(#paint0_linear)"/>
<path d="M67.5537 23.3895V18.0752C67.5537 15.1818 69.0889 13.7056 72.2185 13.7056L77.4737 13.7056C80.5442 13.7056 82.0794 15.1818 82.0794 18.0752V40.2774C82.0794 43.2298 80.5442 44.647 77.4737 44.647H72.2185C69.148 44.647 67.5537 43.1708 67.5537 40.2774V35.0221H72.1004V39.6869C72.1004 40.2774 72.1594 40.6908 72.3366 40.8679C72.5137 41.0451 72.927 41.1041 73.5175 41.1041H76.0566C76.647 41.1041 77.0604 41.0451 77.2375 40.8679C77.4147 40.6908 77.5328 40.2774 77.5328 39.6869V30.9477H72.1004V27.4639H77.5328V18.6066C77.5328 18.0161 77.4147 17.6618 77.2375 17.4847C77.0604 17.3075 76.647 17.1894 76.0566 17.1894H73.5175C72.927 17.1894 72.5137 17.3075 72.3366 17.4847C72.1594 17.6618 72.1004 18.0161 72.1004 18.6066V23.3305H67.5537V23.3895ZM89.8147 44.647L89.8147 13.7646H94.2432V44.647H89.8147ZM105.698 13.7646L99.2032 29.2944L105.698 44.7061H100.857L94.5975 29.2944L100.975 13.7646H105.758H105.698ZM121.641 39.6279V18.7837C121.641 18.1933 121.523 17.7799 121.346 17.6028C121.169 17.4256 120.756 17.3075 120.165 17.3075H117.331C116.74 17.3075 116.327 17.4256 116.15 17.6028C115.973 17.7799 115.855 18.1933 115.855 18.7837V39.6279C115.855 40.2184 115.973 40.6317 116.15 40.8089C116.327 40.986 116.74 41.1041 117.331 41.1041H120.165C120.756 41.1041 121.169 40.986 121.346 40.8089C121.523 40.6317 121.641 40.2184 121.641 39.6279ZM116.032 13.7646H121.523C124.594 13.7646 126.129 15.2408 126.129 18.1342V40.3365C126.129 43.2298 124.594 44.7061 121.523 44.7061H116.032C112.961 44.7061 111.367 43.2298 111.367 40.3365V18.1342C111.367 15.2408 112.902 13.7646 116.032 13.7646ZM133.923 13.7646V44.647H138.352L138.411 17.2485H145.083V44.647H149.63V13.7646L133.923 13.7646ZM161.794 33.9002H167.167L164.333 17.6028L161.794 33.9002ZM168.998 44.647L167.758 37.5021H161.262L160.14 44.647H155.712L161.203 13.7646H167.698L173.603 44.647H169.116H168.998ZM189.782 27.641V18.7247C189.782 18.1342 189.664 17.7209 189.487 17.5437C189.31 17.3666 188.897 17.2485 188.306 17.2485H183.937V29.0582L188.306 29.0582C188.897 29.0582 189.31 28.9401 189.487 28.763C189.664 28.5858 189.782 28.1725 189.782 27.582V27.641ZM179.508 13.7056L189.605 13.7056C192.676 13.7056 194.211 15.1818 194.211 18.0752V28.3496C194.211 31.243 192.676 32.7192 189.605 32.7192H183.937V44.647L179.508 44.647V13.7646V13.7056ZM201.06 44.588V13.7056L205.489 13.7056V44.588H201.06ZM216.944 13.7056L210.449 29.2353L216.944 44.647H212.102L205.843 29.2353L212.22 13.7056H217.003H216.944Z" fill="#50201F"/>
<path d="M67.6143 50.0209V57.7562H69.3266V54.5086H69.6809C70.6257 54.5086 70.98 55.1581 71.2162 56.0438C71.3933 56.6343 71.5704 57.2248 71.8066 57.7562H73.6962C73.3419 56.9886 73.1057 56.1619 72.8104 55.3352C72.5152 54.3905 72.0428 53.7409 71.039 53.5047L73.7552 50.0799H71.6295L69.5038 53.2685H69.3266V50.0799H67.6143V50.0209ZM78.8924 49.9028C76.6485 49.9028 75.1133 51.6152 75.1133 53.9181C75.1133 56.1029 76.4714 57.8743 78.7152 57.8743C80.959 57.8743 82.4943 56.3391 82.4943 53.8C82.4943 51.6742 81.1952 49.9028 78.8333 49.9028H78.8924ZM78.8333 51.2609C80.0143 51.2609 80.6638 52.4419 80.6638 53.859C80.6638 55.3352 80.0143 56.4572 78.8333 56.4572C77.6524 56.4572 76.9438 55.3943 76.9438 53.859C76.9438 52.3828 77.6524 51.2609 78.8333 51.2609ZM86.2143 57.6972H87.9266V51.438H90.0524V49.9618H84.1476V51.438H86.2143V57.6972ZM93.9495 57.6972H95.6619V51.438H97.7876V49.9618H91.8828V51.438H93.9495V57.6972ZM104.46 53.0323H101.626V51.438H104.637V50.0209H99.9133V57.7562H104.814V56.3391H101.626V54.5086L104.46 54.5086V53.0914V53.0323ZM108.298 50.0209V52.0876C108.298 53.0323 108.18 53.859 108.003 54.6267C107.826 55.2171 107.589 55.8076 107.294 56.3391L106.645 56.3981L106.704 59.6458H108.003L108.121 57.6972H112.668L112.786 59.6458H114.085L114.144 56.3981L113.376 56.3391V50.0209H108.357H108.298ZM109.892 51.438H111.605V56.28H109.066C109.243 55.9257 109.479 55.4533 109.597 54.9809C109.833 54.2133 109.951 53.3276 109.951 52.4419V51.438H109.892ZM115.679 50.0209L118.277 53.4457C117.273 53.6228 116.742 54.3905 116.447 55.3943C116.21 56.1619 115.974 56.9886 115.62 57.7562H117.391C117.628 57.2248 117.805 56.5753 117.923 56.0438C118.159 55.2171 118.513 54.5086 119.458 54.5086H119.753V57.7562H121.407V54.5086H121.643C122.588 54.5086 122.942 55.2171 123.178 56.0438C123.355 56.5753 123.473 57.2248 123.709 57.7562H125.481C125.127 56.9886 124.949 56.1619 124.654 55.3943C124.359 54.3905 123.828 53.6228 122.765 53.5047L125.422 50.0799H123.414L121.466 53.2685H121.289V50.0799H119.635V53.2685H119.458L117.509 50.0799H115.502L115.679 50.0209ZM127.548 50.0209V57.7562H129.26V54.5086H132.153V57.7562H133.866V50.0209H132.153V52.9733H129.26V50.0209H127.548ZM136.582 50.0209V57.6972C136.995 57.7562 137.586 57.8153 138.471 57.8153C139.593 57.8153 140.892 57.5791 141.601 56.8115C141.955 56.3981 142.191 55.8667 142.191 55.1581C142.191 53.4457 140.715 52.619 139.121 52.619C138.826 52.619 138.471 52.6781 138.235 52.6781V49.9618H136.523L136.582 50.0209ZM138.294 54.0362C138.471 54.0362 138.649 53.9771 138.885 53.9771C139.534 53.9771 140.361 54.3314 140.361 55.2171C140.361 56.0438 139.652 56.5162 138.885 56.5162C138.649 56.5162 138.412 56.5162 138.294 56.4572V54.0362ZM142.9 50.0209V57.7562H144.612V50.0209H142.9ZM147.447 50.0209V57.7562H149.454L151.049 54.9809C151.521 54.1543 151.993 53.1504 152.348 52.2647H152.407C152.289 53.2685 152.289 54.3314 152.289 55.5124V57.8153H153.883V50.0799H152.111L150.458 53.0914C149.986 53.9181 149.513 54.9219 149.1 55.8076H149.041C149.1 54.8038 149.159 53.5638 149.159 52.3238V50.0209H147.565H147.447ZM148.923 48.2494C149.041 49.1942 149.572 49.6666 150.576 49.6666C151.58 49.6666 152.229 49.2532 152.289 48.2494H151.108C151.049 48.7218 150.93 48.958 150.576 48.958C150.222 48.958 150.104 48.7218 150.045 48.2494H148.864H148.923ZM159.315 50.0209V57.7562H161.028V51.4971H163.744V57.7562H165.456V50.0209H159.256H159.315ZM171.597 49.9028C169.353 49.9028 167.818 51.6152 167.818 53.9181C167.818 56.1029 169.176 57.8743 171.42 57.8743C173.664 57.8743 175.199 56.3391 175.199 53.8C175.199 51.6742 173.9 49.9028 171.538 49.9028H171.597ZM171.538 51.2609C172.719 51.2609 173.369 52.4419 173.369 53.859C173.369 55.3352 172.719 56.4572 171.538 56.4572C170.357 56.4572 169.649 55.3943 169.649 53.859C169.649 52.3828 170.357 51.2609 171.538 51.2609ZM182.934 56.1619C182.58 56.3391 181.989 56.3981 181.458 56.3981C179.923 56.3981 178.978 55.4533 178.978 53.859C178.978 52.1466 180.041 51.3199 181.399 51.3199C182.049 51.3199 182.521 51.438 182.875 51.6152L183.229 50.2571C182.934 50.0799 182.226 49.9028 181.34 49.9028C178.978 49.9028 177.148 51.379 177.148 53.9771C177.148 56.1619 178.506 57.8153 181.163 57.8153C182.108 57.8153 182.816 57.6381 183.111 57.461L182.875 56.1029L182.934 56.1619ZM190.079 53.0914H187.245V51.4971H190.256V50.0799H185.532V57.8153H190.433V56.3981H187.245V54.5676H190.079V53.1504V53.0914ZM186.654 49.6075C187.127 49.6075 187.422 49.2532 187.422 48.8399C187.422 48.3675 187.068 48.0723 186.654 48.0723C186.182 48.0723 185.887 48.4266 185.887 48.8399C185.887 49.2532 186.241 49.6075 186.654 49.6075ZM189.016 49.6075C189.489 49.6075 189.784 49.2532 189.784 48.8399C189.784 48.3675 189.429 48.0723 189.016 48.0723C188.544 48.0723 188.249 48.4266 188.249 48.8399C188.249 49.2532 188.544 49.6075 189.016 49.6075ZM193.563 50.0799V53.4457C193.563 54.6267 193.445 55.6305 192.972 56.1029C192.795 56.28 192.441 56.4572 192.087 56.5162L192.323 57.9334C192.913 57.9334 193.445 57.7562 193.858 57.5791C195.039 56.8705 195.275 55.3352 195.275 53.3866V51.5561H197.047V57.8153H198.759V50.0799H193.563ZM204.841 49.9618C202.597 49.9618 201.062 51.6742 201.062 53.9771C201.062 56.1619 202.42 57.9334 204.664 57.9334C206.908 57.9334 208.443 56.3981 208.443 53.859C208.443 51.7333 207.144 49.9618 204.782 49.9618H204.841ZM204.782 51.3199C205.963 51.3199 206.612 52.5009 206.612 53.9181C206.612 55.3943 205.963 56.5162 204.782 56.5162C203.601 56.5162 202.892 55.4533 202.892 53.9181C202.892 52.4419 203.601 51.3199 204.782 51.3199ZM210.805 50.0799V57.8153H212.517V54.5676H212.871C213.816 54.5676 214.17 55.2171 214.407 56.1029C214.584 56.6934 214.761 57.2838 214.997 57.8153H216.887C216.532 57.0476 216.296 56.221 216.001 55.3943C215.706 54.4495 215.233 53.8 214.229 53.5638L216.946 50.139H214.82L212.694 53.3276H212.517V50.139H210.805V50.0799Z" fill="#50201F"/>
<path d="M107.589 2.78027L67.2593 2.78027V4.19744L107.589 4.19744V2.78027Z" fill="#50201F"/>
<path d="M121.17 6.32412C120.874 6.44222 120.461 6.50127 120.048 6.50127C118.867 6.50127 118.099 5.73364 118.099 4.55267C118.099 3.19455 118.926 2.54501 119.989 2.54501C120.461 2.54501 120.874 2.66311 121.111 2.78121L121.406 1.71833C121.17 1.60024 120.638 1.42309 119.93 1.42309C118.099 1.42309 116.623 2.54501 116.623 4.61172C116.623 6.32412 117.686 7.62319 119.812 7.62319C120.52 7.62319 121.111 7.5051 121.347 7.387L121.17 6.32412ZM126.779 3.90313L124.535 3.90313V2.66311L126.897 2.66311V1.54119L123.177 1.54119V7.56414H127.015V6.44222H124.535V5.02506H126.779V3.90313ZM128.905 7.56414C129.2 7.62319 129.732 7.68224 130.381 7.68224C131.562 7.68224 132.33 7.5051 132.743 7.1508C133.097 6.85556 133.393 6.44222 133.393 5.85174C133.393 5.0841 132.861 4.55267 132.212 4.37552C132.92 4.13933 133.215 3.60789 133.215 3.07645C133.215 2.54501 132.92 2.13167 132.507 1.89548C132.034 1.65929 131.562 1.54119 130.735 1.54119C130.027 1.54119 129.318 1.60024 128.964 1.65929V7.56414H128.905ZM130.263 2.54501C130.381 2.54501 130.558 2.48597 130.854 2.48597C131.444 2.48597 131.798 2.72216 131.798 3.19455C131.798 3.66694 131.444 3.96218 130.676 3.96218L130.204 3.96218V2.54501H130.263ZM130.263 4.90696H130.735C131.444 4.90696 131.975 5.14315 131.975 5.73364C131.975 6.38317 131.444 6.61937 130.794 6.61937C130.558 6.61937 130.381 6.61937 130.263 6.61937V4.90696ZM138.825 3.90313L136.581 3.90313V2.66311L138.943 2.66311V1.54119L135.223 1.54119V7.56414L139.061 7.56414V6.44222L136.581 6.44222V5.02506L138.825 5.02506V3.90313ZM140.951 7.56414H142.309V5.37935C142.427 5.37935 142.604 5.4384 142.781 5.4384C143.608 5.4384 144.257 5.26125 144.73 4.78886C145.084 4.43457 145.261 3.96218 145.261 3.3717C145.261 2.78121 145.025 2.24977 144.612 1.95453C144.198 1.65929 143.608 1.48214 142.781 1.48214C141.954 1.48214 141.364 1.54119 140.951 1.60024V7.56414ZM142.309 2.54501C142.427 2.54501 142.604 2.48597 142.84 2.48597C143.549 2.48597 143.903 2.84026 143.903 3.3717C143.903 3.96218 143.431 4.37552 142.722 4.37552C142.545 4.37552 142.368 4.37552 142.25 4.31647V2.54501H142.309ZM147.092 1.48214V7.5051H148.45V4.96601H150.694V7.5051H152.052V1.48214L150.694 1.48214V3.78504L148.45 3.78504V1.48214L147.092 1.48214ZM154.177 1.48214V7.5051C154.473 7.56414 155.004 7.62319 155.654 7.62319C156.539 7.62319 157.543 7.44605 158.134 6.85556C158.429 6.56032 158.606 6.14698 158.606 5.55649C158.606 4.19838 157.484 3.54884 156.185 3.54884C155.949 3.54884 155.713 3.54884 155.535 3.60789V1.48214H154.177ZM155.535 4.61172C155.654 4.61172 155.831 4.55267 156.008 4.55267C156.539 4.55267 157.189 4.84791 157.189 5.49744C157.189 6.14698 156.598 6.50127 156.008 6.50127C155.831 6.50127 155.654 6.50127 155.535 6.44222V4.55267V4.61172ZM159.137 1.48214V7.5051H160.495V1.48214L159.137 1.48214ZM162.68 1.48214V7.5051H164.215L165.455 5.3203C165.81 4.67076 166.223 3.90313 166.459 3.19455C166.4 3.96218 166.341 4.78886 166.341 5.73364V7.5051H167.581V1.48214H166.164L164.865 3.84408C164.511 4.49362 164.097 5.26125 163.802 5.96983C163.861 5.14315 163.861 4.19838 163.861 3.2536V1.48214L162.621 1.48214H162.68ZM163.861 0.124023C163.92 0.891655 164.393 1.24595 165.16 1.24595C165.987 1.24595 166.459 0.891655 166.518 0.124023L165.574 0.124023C165.574 0.478315 165.455 0.655461 165.16 0.655461C164.865 0.655461 164.747 0.478315 164.747 0.124023L163.802 0.124023L163.861 0.124023Z" fill="#166D38"/>
<path d="M217.004 3.25293L176.616 3.25293V4.6701L217.004 4.6701V3.25293Z" fill="#50201F"/>
<defs>
<linearGradient id="paint0_linear" x1="18.4263" y1="57.5185" x2="35.0191" y2="20.3181" gradientUnits="userSpaceOnUse">
<stop stop-color="#409236"/>
<stop offset="1" stop-color="#004F32"/>
</linearGradient>
</defs>
</svg>
