<svg width="81" height="81" viewBox="0 0 81 81" fill="none" xmlns="http://www.w3.org/2000/svg">
<path d="M72.0037 0.000941668C71.4608 -0.00218349 70.9191 0.0525068 70.3877 0.163762C70.3489 0.178451 70.3108 0.19517 70.2737 0.213765C70.1881 0.240954 70.1056 0.277206 70.0276 0.321739C69.9554 0.360804 69.8872 0.406743 69.8239 0.458934C69.7584 0.514874 69.6989 0.577221 69.6457 0.645037C69.5934 0.708634 69.5473 0.777075 69.5081 0.849422C69.469 0.924582 69.4376 1.00349 69.414 1.0849C69.3874 1.16959 69.3699 1.25679 69.3617 1.34523C69.3514 1.38554 69.3431 1.42633 69.337 1.46742V9.33501H42.1803C40.4411 3.72004 35.2124 -0.0792187 29.335 0.00125418C23.4575 -0.0792187 18.2286 3.72019 16.4896 9.33501H10.6674V1.46742C10.6613 1.42617 10.6531 1.38539 10.6428 1.34507C10.6345 1.25679 10.6168 1.16975 10.5904 1.08522C10.567 1.00365 10.5354 0.924582 10.4963 0.849266C10.457 0.777075 10.4109 0.70879 10.3587 0.645193C10.1957 0.443464 9.97756 0.293613 9.73067 0.213921C9.69364 0.195327 9.65551 0.178607 9.61676 0.163919C9.08533 0.0526631 8.54374 -0.00187099 8.00074 0.00109791C5.8772 -0.00421486 3.83928 0.836921 2.33764 2.3384C0.835849 3.83989 -0.00528775 5.8778 2.50151e-05 8.00135V72.0046C0.00486901 76.4211 3.58396 80.0002 8.00043 80.005H72.0037C76.4201 80.0002 79.9992 76.4211 80.0041 72.0046V8.00135C79.9992 3.58487 76.4201 0.00578566 72.0037 0.000941668ZM58.6697 12.0015H69.337V16.0018H58.6697V12.0015ZM42.632 12.0015H48.0025V33.3359H33.3425C36.7795 27.8081 42.6688 17.4437 42.6688 12.6916C42.6689 12.4588 42.6452 12.2314 42.632 12.0015ZM29.3348 2.6678C35.044 2.50216 39.8127 6.98333 40.0021 12.6917C40.0021 16.8082 33.8074 27.8109 30.04 33.6853C29.8706 33.8381 29.7443 34.0328 29.6734 34.2496C29.5757 34.3996 29.4714 34.5629 29.3778 34.7046C25.6432 29.1835 18.6675 17.0592 18.6675 12.6917C18.8571 6.98333 23.6258 2.50216 29.3348 2.6678ZM10.6673 12.0015H16.0377C16.0247 12.2314 16.001 12.4588 16.001 12.6917C16.001 17.4442 21.8907 27.8092 25.3269 33.3361H10.6673V12.0015ZM2.66688 8.00135C2.66469 6.58831 3.22222 5.23183 4.21774 4.22897C5.22201 3.22782 6.58255 2.66639 8.00043 2.66764V64.004C6.02955 64.0047 4.12898 64.7366 2.66688 66.058V8.00135V8.00135ZM8.00043 77.3381C5.05591 77.3352 2.66969 74.949 2.66688 72.0046C2.66985 69.0601 5.05606 66.6739 8.00043 66.671C8.35342 66.6682 8.70562 66.7028 9.05127 66.7739C9.09924 66.7773 9.14736 66.7781 9.19549 66.7759C9.24112 66.7878 9.28721 66.7971 9.33378 66.8039C9.37644 66.8039 9.41238 66.7835 9.4541 66.7796C9.88709 66.7453 10.2732 66.4942 10.4801 66.1123C10.5243 66.0346 10.5602 65.9526 10.5871 65.8674C10.6059 65.8302 10.6226 65.7921 10.6373 65.7532C10.6406 65.7055 10.6413 65.6577 10.6392 65.6099C10.6512 65.564 10.6604 65.5175 10.6671 65.4705V44.0032H48.0023V50.118L20.7822 77.3381H8.00043ZM48.0025 77.3381H35.8742L48.0025 65.2099V77.3381ZM56.3932 61.7277C56.143 61.9778 56.0027 62.3171 56.0029 62.6707V77.3381H50.6693V61.991C50.6678 61.452 50.3423 60.9668 49.8441 60.7611C49.346 60.5553 48.773 60.6692 48.3915 61.05L32.1032 77.3381H24.5533L50.277 51.6147C50.5265 51.3635 50.6674 51.0243 50.6692 50.6702V42.6698C50.6693 42.3161 50.529 41.9768 50.2788 41.7268C50.0287 41.4766 49.6894 41.3363 49.3358 41.3365H10.6673V36.0029H27.0386C27.0787 36.0631 27.1311 36.1432 27.1681 36.1982C27.6591 36.9106 28.4688 37.3361 29.3339 37.3363C30.1989 37.3364 31.0089 36.9116 31.5004 36.1995C31.5379 36.1442 31.5902 36.0636 31.6308 36.0029H49.3358C49.6896 36.0031 50.0288 35.8628 50.2788 35.6126C50.529 35.3624 50.6693 35.0232 50.6692 34.6696V12.0015H56.0027V17.3351C56.0026 17.6889 56.1429 18.0281 56.393 18.2781C56.6432 18.5281 56.9824 18.6686 57.3361 18.6685H69.3367V24.002H57.3361C56.9823 24.0018 56.6431 24.1422 56.393 24.3923C56.143 24.6425 56.0026 24.9817 56.0027 25.3354V54.6701C56.0026 55.0239 56.1429 55.3631 56.393 55.6131C56.6432 55.8631 56.9824 56.0036 57.3361 56.0035H69.3367V61.337H57.3361C56.9826 61.3372 56.6434 61.4777 56.3932 61.7277ZM69.3368 26.669V53.3371H58.6696V26.669H69.3368ZM72.0037 77.3381H58.6697V64.0042H69.337V65.4704C69.3437 65.5172 69.3531 65.5636 69.3649 65.6096C69.3629 65.6574 69.3635 65.7052 69.367 65.753C69.3817 65.7919 69.3984 65.8299 69.4171 65.8671C69.4443 65.9529 69.4806 66.0355 69.5254 66.1138C69.6868 66.4121 69.9614 66.6329 70.2873 66.7267C70.373 66.7535 70.4611 66.7714 70.5503 66.7798C70.5919 66.7837 70.6278 66.804 70.6705 66.804C70.7621 66.7767 70.8578 66.7665 70.953 66.774C71.2986 66.7029 71.6508 66.6684 72.0038 66.6712C74.9495 66.6712 77.3374 69.0591 77.3374 72.0047C77.3372 74.9502 74.9493 77.3381 72.0037 77.3381ZM77.3372 66.0582C75.875 64.7367 73.9746 64.0048 72.0037 64.0042V2.6678C74.9482 2.67076 77.3344 5.05698 77.3372 8.00135V66.0582Z" fill="#92DC00"/>
<path d="M36.0021 13.3349C36.0021 9.65283 33.0171 6.66783 29.335 6.66783C25.653 6.66783 22.668 9.65267 22.668 13.3349C22.6723 17.0152 25.6547 19.9976 29.335 20.0019C33.0172 20.0019 36.0021 17.017 36.0021 13.3349ZM29.335 17.3351C27.1259 17.3351 25.3348 15.5441 25.3348 13.3349C25.3372 11.1267 27.1268 9.33703 29.335 9.33469C31.5442 9.33469 33.3352 11.1256 33.3352 13.3349C33.3352 15.5442 31.5444 17.3351 29.335 17.3351Z" fill="#92DC00"/>
</svg>
